<svg id="Layer_1" data-name="Layer 1" xmlns="http://www.w3.org/2000/svg" viewBox="0 0 76.54 76.54"><title>Ng_Mark_Black_RGB</title><path d="M38.27,17A21.26,21.26,0,1,0,59.53,38.27,21.26,21.26,0,0,0,38.27,17ZM27.93,47.57a1,1,0,1,1,.95-1A1,1,0,0,1,27.93,47.57Zm0-16.7a.95.95,0,1,1,.95-.95A.95.95,0,0,1,27.93,30.87Zm3.45,16.7a1,1,0,1,1,.95-1A1,1,0,0,1,31.38,47.57Zm0-3.34a1,1,0,1,1,.95-.95A1,1,0,0,1,31.38,44.23Zm0-3.34a1,1,0,1,1,.95-1A1,1,0,0,1,31.38,40.89Zm0-3.34a1,1,0,1,1,.95-.95A1,1,0,0,1,31.38,37.55Zm0-3.34a.95.95,0,1,1,.95-1A1,1,0,0,1,31.38,34.21Zm0-3.34a.95.95,0,1,1,.95-.95A1,1,0,0,1,31.38,30.87Zm3.44,16.7a1,1,0,1,1,1-1A1,1,0,0,1,34.82,47.57Zm0-10a1,1,0,1,1,1-.95A1,1,0,0,1,34.82,37.55Zm0-3.34a1,1,0,1,1,1-1A1,1,0,0,1,34.82,34.21Zm3.45,6.68a1,1,0,1,1,.95-1A1,1,0,0,1,38.27,40.89Zm0-3.34a1,1,0,1,1,.95-.95A1,1,0,0,1,38.27,37.55Zm3.44,6.68a1,1,0,1,1,1-.95A1,1,0,0,1,41.71,44.23Zm0-3.34a1,1,0,1,1,1-1A1,1,0,0,1,41.71,40.89Zm0-10a1,1,0,1,1,1-.95A.95.95,0,0,1,41.71,30.87Zm3.45,16.7a1,1,0,1,1,1-1A1,1,0,0,1,45.16,47.57Zm0-3.34a1,1,0,1,1,1-.95A1,1,0,0,1,45.16,44.23Zm0-3.34a1,1,0,1,1,1-1A1,1,0,0,1,45.16,40.89Zm0-3.34a1,1,0,1,1,1-.95A1,1,0,0,1,45.16,37.55Zm0-3.34a.95.95,0,1,1,1-1A1,1,0,0,1,45.16,34.21Zm0-3.34a.95.95,0,1,1,1-.95A.95.95,0,0,1,45.16,30.87Zm3.45,0a.95.95,0,1,1,1-.95A1,1,0,0,1,48.61,30.87Z"/></svg>